<svg xmlns="http://www.w3.org/2000/svg" xmlns:xlink="http://www.w3.org/1999/xlink" width="112" height="192" viewBox="0 0 112 192"><defs><clipPath id="a"><rect width="112" height="192" fill="none"/></clipPath></defs><g clip-path="url(#a)"><g transform="translate(-376 -928)"><circle cx="6" cy="6" r="6" transform="translate(376 928)" fill="#f6921e"/></g><g transform="translate(-344 -928)"><circle cx="6" cy="6" r="6" transform="translate(376 928)" fill="#f6921e"/></g><g transform="translate(-312 -928)"><circle cx="6" cy="6" r="6" transform="translate(376 928)" fill="#f6921e"/></g><g transform="translate(-280 -928)"><circle cx="6" cy="6" r="6" transform="translate(376 928)" fill="#f6921e"/></g><g transform="translate(-376 -898)"><circle cx="6" cy="6" r="6" transform="translate(376 928)" fill="#f6921e"/></g><g transform="translate(-344 -898)"><circle cx="6" cy="6" r="6" transform="translate(376 928)" fill="#f6921e"/></g><g transform="translate(-312 -898)"><circle cx="6" cy="6" r="6" transform="translate(376 928)" fill="#f6921e"/></g><g transform="translate(-280 -898)"><circle cx="6" cy="6" r="6" transform="translate(376 928)" fill="#f6921e"/></g><g transform="translate(-376 -868)"><circle cx="6" cy="6" r="6" transform="translate(376 928)" fill="#f6921e"/></g><g transform="translate(-344 -868)"><circle cx="6" cy="6" r="6" transform="translate(376 928)" fill="#f6921e"/></g><g transform="translate(-312 -868)"><circle cx="6" cy="6" r="6" transform="translate(376 928)" fill="#f6921e"/></g><g transform="translate(-280 -868)"><circle cx="6" cy="6" r="6" transform="translate(376 928)" fill="#f6921e"/></g><g transform="translate(-376 -838)"><circle cx="6" cy="6" r="6" transform="translate(376 928)" fill="#f6921e"/></g><g transform="translate(-344 -838)"><circle cx="6" cy="6" r="6" transform="translate(376 928)" fill="#f6921e"/></g><g transform="translate(-312 -838)"><circle cx="6" cy="6" r="6" transform="translate(376 928)" fill="#f6921e"/></g><g transform="translate(-280 -838)"><circle cx="6" cy="6" r="6" transform="translate(376 928)" fill="#f6921e"/></g><g transform="translate(-376 -808)"><circle cx="6" cy="6" r="6" transform="translate(376 928)" fill="#f6921e"/></g><g transform="translate(-344 -808)"><circle cx="6" cy="6" r="6" transform="translate(376 928)" fill="#f6921e"/></g><g transform="translate(-312 -808)"><circle cx="6" cy="6" r="6" transform="translate(376 928)" fill="#f6921e"/></g><g transform="translate(-280 -808)"><circle cx="6" cy="6" r="6" transform="translate(376 928)" fill="#f6921e"/></g><g transform="translate(-376 -778)"><circle cx="6" cy="6" r="6" transform="translate(376 928)" fill="#f6921e"/></g><g transform="translate(-344 -778)"><circle cx="6" cy="6" r="6" transform="translate(376 928)" fill="#f6921e"/></g><g transform="translate(-312 -778)"><circle cx="6" cy="6" r="6" transform="translate(376 928)" fill="#f6921e"/></g><g transform="translate(-280 -778)"><circle cx="6" cy="6" r="6" transform="translate(376 928)" fill="#f6921e"/></g><g transform="translate(-376 -748)"><circle cx="6" cy="6" r="6" transform="translate(376 928)" fill="#f6921e"/></g><g transform="translate(-344 -748)"><circle cx="6" cy="6" r="6" transform="translate(376 928)" fill="#f6921e"/></g><g transform="translate(-312 -748)"><circle cx="6" cy="6" r="6" transform="translate(376 928)" fill="#f6921e"/></g><g transform="translate(-280 -748)"><circle cx="6" cy="6" r="6" transform="translate(376 928)" fill="#f6921e"/></g></g></svg>