<svg xmlns="http://www.w3.org/2000/svg" width="129.1" height="66.431" viewBox="0 0 129.1 66.431"><g transform="translate(-1114.6 -998.043)"><g transform="translate(1115.4 998.843)"><g transform="translate(0.6 0.6)"><line x1="28.718" y2="21.573" fill="none" stroke="#344154" stroke-linecap="round" stroke-linejoin="round" stroke-miterlimit="10" stroke-width="2"/><line y2="30.916" transform="translate(5.359 21.985)" stroke-width="2" stroke="#344154" stroke-linecap="round" stroke-linejoin="round" stroke-miterlimit="10" fill="none"/><rect width="16.076" height="16.076" transform="translate(20.748 25.145)" stroke-width="2" stroke="#344154" stroke-linecap="round" stroke-linejoin="round" stroke-miterlimit="10" fill="none"/><path d="M4.5,40.559H51.218V35.2" transform="translate(0.859 12.342)" fill="none" stroke="#344154" stroke-linecap="round" stroke-linejoin="round" stroke-miterlimit="10" stroke-width="2"/><line x1="10.992" y2="8.244" transform="translate(17.725 7.282)" stroke-width="2" stroke="#344154" stroke-linecap="round" stroke-linejoin="round" stroke-miterlimit="10" fill="none"/><line x2="28.718" y2="21.573" transform="translate(28.718)" stroke-width="2" stroke="#344154" stroke-linecap="round" stroke-linejoin="round" stroke-miterlimit="10" fill="none"/><line x2="10.992" y2="8.244" transform="translate(28.718 7.282)" stroke-width="2" stroke="#344154" stroke-linecap="round" stroke-linejoin="round" stroke-miterlimit="10" fill="none"/></g><g transform="translate(29.318 22.585)"><path d="M57.684,25.2a11.542,11.542,0,0,1-23.084,0" transform="translate(-16.6 -13.383)" fill="none" stroke="#344154" stroke-linecap="round" stroke-linejoin="round" stroke-miterlimit="10" stroke-width="2"/><path d="M49.489,26.547H35.473A2.463,2.463,0,0,1,33,24.073h0A2.463,2.463,0,0,1,35.473,21.6H58.008a2.463,2.463,0,0,1,2.473,2.473h0a2.463,2.463,0,0,1-2.473,2.473H55.26" transform="translate(-17.198 -14.73)" fill="none" stroke="#344154" stroke-linecap="round" stroke-linejoin="round" stroke-miterlimit="10" stroke-width="2"/><g transform="translate(23.634)"><line y1="6.87" fill="none" stroke="#344154" stroke-linecap="round" stroke-linejoin="round" stroke-miterlimit="10" stroke-width="2"/><line y1="6.87" transform="translate(11.817)" stroke-width="2" stroke="#344154" stroke-linecap="round" stroke-linejoin="round" stroke-miterlimit="10" fill="none"/></g><path d="M51.042,33.6V47.34A4.926,4.926,0,0,1,46.1,52.287H26.447A4.926,4.926,0,0,1,21.5,47.34V41.295" transform="translate(-21.5 -10.241)" fill="none" stroke="#344154" stroke-linecap="round" stroke-linejoin="round" stroke-miterlimit="10" stroke-width="2"/></g><path d="M26.045,22.1v7.282H18.9V22.1l3.573,3.573Z" transform="translate(6.845 8.042)" fill="#7589d8"/></g><g transform="translate(1191.4 1018.4)"><path d="M14.3,10.9a8.788,8.788,0,0,1,9.2,0" fill="none" stroke="#344154" stroke-linecap="round" stroke-linejoin="round" stroke-miterlimit="10" stroke-width="2"/><path d="M12,8a12.654,12.654,0,0,1,6.9-2,13.557,13.557,0,0,1,6.9,2" fill="none" stroke="#344154" stroke-linecap="round" stroke-linejoin="round" stroke-miterlimit="10" stroke-width="2"/><path d="M17,13.4a3.83,3.83,0,0,1,1.9-.5,4.136,4.136,0,0,1,1.9.5" fill="none" stroke="#344154" stroke-linecap="round" stroke-linejoin="round" stroke-miterlimit="10" stroke-width="2"/><path d="M19.1,15.6a.2.2,0,1,1-.2-.2A.215.215,0,0,1,19.1,15.6Z" fill="none" stroke="#344154" stroke-linecap="round" stroke-linejoin="round" stroke-miterlimit="10" stroke-width="2"/><path d="M35.3,24.1V2.7A2.112,2.112,0,0,1,37.4.6H49.1a2.112,2.112,0,0,1,2.1,2.1V20.5" fill="none" stroke="#344154" stroke-linecap="round" stroke-miterlimit="10" stroke-width="2"/><path d="M51.3,20.5V26a1.58,1.58,0,0,1-1.6,1.6H39.2" fill="none" stroke="#344154" stroke-linecap="round" stroke-miterlimit="10" stroke-width="2"/><path d="M39.6.6v1a1.216,1.216,0,0,0,1.2,1.2H46a1.216,1.216,0,0,0,1.2-1.2V.6" fill="none" stroke="#344154" stroke-linecap="round" stroke-miterlimit="10" stroke-width="2"/><path d="M41,24.3a.3.3,0,1,1-.3-.3Q41,24.15,41,24.3Z" fill="none" stroke="#344154" stroke-linecap="round" stroke-linejoin="round" stroke-miterlimit="10" stroke-width="2"/><path d="M43.6,24.3a.3.3,0,1,1-.3-.3Q43.6,24.15,43.6,24.3Z" fill="none" stroke="#344154" stroke-linecap="round" stroke-linejoin="round" stroke-miterlimit="10" stroke-width="2"/><circle cx="0.3" cy="0.3" r="0.3" transform="translate(45.6 24)" fill="none" stroke="#344154" stroke-linecap="round" stroke-linejoin="round" stroke-miterlimit="10" stroke-width="2"/><path d="M26.9,28.5l-1.4,1.3a3.176,3.176,0,0,1-2,.8H14.7a2.792,2.792,0,0,1-2-.8l-1.4-1.3" fill="none" stroke="#344154" stroke-linecap="round" stroke-linejoin="round" stroke-miterlimit="10" stroke-width="2"/><path d="M32.3,37.4H26.6v-1a1.96,1.96,0,0,1,1.7-2l4-.5" fill="none" stroke="#344154" stroke-linecap="round" stroke-miterlimit="10" stroke-width="2"/><path d="M5.5,33.8l4,.5a1.96,1.96,0,0,1,1.7,2v1H5.5" fill="none" stroke="#344154" stroke-linecap="round" stroke-miterlimit="10" stroke-width="2"/><line y2="9.5" transform="translate(2.5 31.4)" stroke-width="2" stroke="#344154" stroke-linecap="round" stroke-linejoin="round" stroke-miterlimit="10" fill="none"/><path d="M2.5,31.4.9,29.7A.908.908,0,0,1,.6,29V27.1a.9.9,0,0,1,.9-.9H5.1l3.1-6a3.317,3.317,0,0,1,2.6-1.3H27a3.317,3.317,0,0,1,2.6,1.3l3.1,6h3.6a.9.9,0,0,1,.9.9V29a.908.908,0,0,1-.3.7l-1.6,1.7v9.5" fill="none" stroke="#344154" stroke-linecap="round" stroke-linejoin="round" stroke-miterlimit="10" stroke-width="2"/><path d="M29.5,40.9v.4a2.9,2.9,0,0,0,2.9,2.9h0a2.9,2.9,0,0,0,2.9-2.9v-.4" fill="none" stroke="#344154" stroke-linecap="round" stroke-linejoin="round" stroke-miterlimit="10" stroke-width="2"/><path d="M8.2,40.9v.4a2.9,2.9,0,0,1-2.9,2.9h0a2.9,2.9,0,0,1-2.9-2.9v-.4" fill="none" stroke="#344154" stroke-linecap="round" stroke-linejoin="round" stroke-miterlimit="10" stroke-width="2"/><path d="M32.3,40.9H5.5" fill="none" stroke="#344154" stroke-linecap="round" stroke-linejoin="round" stroke-miterlimit="10" stroke-width="2"/><line x2="4.6" transform="translate(16.6 37.4)" stroke-width="2" stroke="#344154" stroke-linecap="round" stroke-linejoin="round" stroke-miterlimit="10" fill="none"/><path d="M27,21H10.8a1.086,1.086,0,0,0-.9.4L7.6,25.8H30.1l-2.3-4.4A.909.909,0,0,0,27,21Z" fill="#f6921e"/><path d="M165.28,233.981a5.075,5.075,0,1,0,5.075,5.075A5.075,5.075,0,0,0,165.28,233.981Zm-1.543,9.812,1.565-4.8h-2.387l3.909-4.672-1.522,4.672h2.445Z" transform="translate(-121.914 -225.483)" fill="#f6921e"/></g></g></svg>