<svg xmlns="http://www.w3.org/2000/svg" width="164.488" height="67.281" viewBox="0 0 164.488 67.281"><g transform="translate(-743.212 -1004.352)"><g transform="translate(743.6 985.203)"><g transform="translate(78.381 20.149)"><path d="M48.555,22.6V48.229a5.154,5.154,0,0,1-5.083,5.083H38.6" transform="translate(-35.669 0.895)" fill="none" stroke="#344154" stroke-linecap="round" stroke-linejoin="round" stroke-miterlimit="10" stroke-width="2"/><path d="M56.867,24.4a11.034,11.034,0,0,1-22.067,0" transform="translate(-32.824 -13.037)" fill="none" stroke="#344154" stroke-linecap="round" stroke-linejoin="round" stroke-miterlimit="10" stroke-width="2"/><path d="M49.245,26.211H35.906A2.251,2.251,0,0,1,33.6,23.906h0A2.251,2.251,0,0,1,35.906,21.6H57.314a2.251,2.251,0,0,1,2.306,2.306h0a2.251,2.251,0,0,1-2.306,2.306H54.679" transform="translate(-33.6 -14.848)" fill="none" stroke="#344154" stroke-linecap="round" stroke-linejoin="round" stroke-miterlimit="10" stroke-width="2"/><line y1="6.587" transform="translate(7.41)" stroke-width="2" stroke="#344154" stroke-linecap="round" stroke-linejoin="round" stroke-miterlimit="10" fill="none"/><line y1="6.587" transform="translate(18.609)" stroke-width="2" stroke="#344154" stroke-linecap="round" stroke-linejoin="round" stroke-miterlimit="10" fill="none"/></g><g transform="translate(0.612 22.463)"><line y1="15.462" transform="translate(80.277 28.595)" stroke-width="2" stroke="#344154" stroke-linecap="round" stroke-linejoin="round" stroke-miterlimit="10" fill="none"/><path d="M17.657,48.495V24.136A4.249,4.249,0,0,0,13.421,19.9H4.736A4.249,4.249,0,0,0,.5,24.136V48.283" transform="translate(-0.5 -4.438)" fill="none" stroke="#344154" stroke-linecap="round" stroke-linejoin="round" stroke-miterlimit="10" stroke-width="2"/><path d="M2.4,24.92V20.26A4.7,4.7,0,0,1,7.06,15.6h0a4.7,4.7,0,0,1,4.66,4.66v4.66" transform="translate(1.624 -9.246)" fill="none" stroke="#344154" stroke-linecap="round" stroke-linejoin="round" stroke-miterlimit="10" stroke-width="2"/><line y1="6.143" transform="translate(8.684)" stroke-width="2" stroke="#344154" stroke-linecap="round" stroke-linejoin="round" stroke-miterlimit="10" fill="none"/><path d="M22.58,44.358V30.166L15.59,23.6,8.6,30.166" transform="translate(8.557 -0.301)" fill="none" stroke="#344154" stroke-linecap="round" stroke-linejoin="round" stroke-miterlimit="10" stroke-width="2"/><path d="M29.391,30.166,22.4,23.6l-7.2,6.566" transform="translate(15.936 -0.301)" fill="none" stroke="#344154" stroke-linecap="round" stroke-linejoin="round" stroke-miterlimit="10" stroke-width="2"/><path d="M21.9,53.3V15.6h18V53.3" transform="translate(23.428 -9.246)" fill="none" stroke="#344154" stroke-linecap="round" stroke-linejoin="round" stroke-miterlimit="10" stroke-width="2"/><path d="M47.345,31.691,38.872,21.1H30.4" transform="translate(32.932 -3.096)" fill="none" stroke="#344154" stroke-linecap="round" stroke-linejoin="round" stroke-miterlimit="10" stroke-width="2"/><line y2="1.694" transform="translate(8.684 23.299)" stroke-width="2" stroke="#344154" stroke-linecap="round" stroke-linejoin="round" stroke-miterlimit="10" fill="none"/><line y2="1.694" transform="translate(8.684 29.654)" stroke-width="2" stroke="#344154" stroke-linecap="round" stroke-linejoin="round" stroke-miterlimit="10" fill="none"/><line y2="1.906" transform="translate(54.436 25.629)" stroke-width="2" stroke="#344154" stroke-linecap="round" stroke-linejoin="round" stroke-miterlimit="10" fill="none"/><line y2="1.906" transform="translate(54.436 31.984)" stroke-width="2" stroke="#344154" stroke-linecap="round" stroke-linejoin="round" stroke-miterlimit="10" fill="none"/><line y2="1.906" transform="translate(54.436 38.338)" stroke-width="2" stroke="#344154" stroke-linecap="round" stroke-linejoin="round" stroke-miterlimit="10" fill="none"/><line y2="1.906" transform="translate(24.147 31.984)" stroke-width="2" stroke="#344154" stroke-linecap="round" stroke-linejoin="round" stroke-miterlimit="10" fill="none"/><line y2="1.906" transform="translate(24.147 38.338)" stroke-width="2" stroke="#344154" stroke-linecap="round" stroke-linejoin="round" stroke-miterlimit="10" fill="none"/><line y2="1.906" transform="translate(38.338 31.984)" stroke-width="2" stroke="#344154" stroke-linecap="round" stroke-linejoin="round" stroke-miterlimit="10" fill="none"/><line y2="1.906" transform="translate(38.338 38.338)" stroke-width="2" stroke="#344154" stroke-linecap="round" stroke-linejoin="round" stroke-miterlimit="10" fill="none"/><line y2="1.906" transform="translate(70.745 31.984)" stroke-width="2" stroke="#344154" stroke-linecap="round" stroke-linejoin="round" stroke-miterlimit="10" fill="none"/><line y2="1.906" transform="translate(70.745 25.629)" stroke-width="2" stroke="#344154" stroke-linecap="round" stroke-linejoin="round" stroke-miterlimit="10" fill="none"/><line y2="1.906" transform="translate(70.745 38.338)" stroke-width="2" stroke="#344154" stroke-linecap="round" stroke-linejoin="round" stroke-miterlimit="10" fill="none"/><line y2="1.694" transform="translate(54.436 12.921)" stroke-width="2" stroke="#344154" stroke-linecap="round" stroke-linejoin="round" stroke-miterlimit="10" fill="none"/><line y2="1.906" transform="translate(54.436 19.275)" stroke-width="2" stroke="#344154" stroke-linecap="round" stroke-linejoin="round" stroke-miterlimit="10" fill="none"/></g><g transform="translate(0.4 69.697)"><path d="M.6,39.56A9.527,9.527,0,0,0,8.649,34.9,9.527,9.527,0,0,0,16.7,39.56a9.527,9.527,0,0,0,8.049-4.66,9.281,9.281,0,0,0,16.1,0,9.281,9.281,0,0,0,16.1,0,9.527,9.527,0,0,0,8.049,4.66" transform="translate(-0.176 -34.9)" fill="none" stroke="#344154" stroke-linecap="round" stroke-linejoin="round" stroke-miterlimit="10" stroke-width="2"/><path d="M30.8,39.56a9.527,9.527,0,0,0,8.049-4.66A9.527,9.527,0,0,0,46.9,39.56" transform="translate(33.591 -34.9)" fill="none" stroke="#344154" stroke-linecap="round" stroke-linejoin="round" stroke-miterlimit="10" stroke-width="2"/><path d="M72.84,37.4a9.281,9.281,0,0,1-16.1,0,9.281,9.281,0,0,1-16.1,0,9.281,9.281,0,0,1-16.1,0A9.527,9.527,0,0,1,16.5,42.06,9.527,9.527,0,0,1,8.449,37.4,9.527,9.527,0,0,1,.4,42.06v6.778a9.527,9.527,0,0,0,8.049-4.66,9.527,9.527,0,0,0,8.049,4.66,9.527,9.527,0,0,0,8.049-4.66,9.281,9.281,0,0,0,16.1,0,9.281,9.281,0,0,0,16.1,0,9.281,9.281,0,0,0,16.1,0,9.527,9.527,0,0,0,8.049,4.66V42.06A9.527,9.527,0,0,1,72.84,37.4Z" transform="translate(-0.4 -32.105)" fill="#7589d8"/></g></g><g transform="translate(855.4 1018.4)"><path d="M14.3,10.9a8.788,8.788,0,0,1,9.2,0" fill="none" stroke="#344154" stroke-linecap="round" stroke-linejoin="round" stroke-miterlimit="10" stroke-width="2"/><path d="M12,8a12.654,12.654,0,0,1,6.9-2,13.557,13.557,0,0,1,6.9,2" fill="none" stroke="#344154" stroke-linecap="round" stroke-linejoin="round" stroke-miterlimit="10" stroke-width="2"/><path d="M17,13.4a3.83,3.83,0,0,1,1.9-.5,4.136,4.136,0,0,1,1.9.5" fill="none" stroke="#344154" stroke-linecap="round" stroke-linejoin="round" stroke-miterlimit="10" stroke-width="2"/><path d="M19.1,15.6a.2.2,0,1,1-.2-.2A.215.215,0,0,1,19.1,15.6Z" fill="none" stroke="#344154" stroke-linecap="round" stroke-linejoin="round" stroke-miterlimit="10" stroke-width="2"/><path d="M35.3,24.1V2.7A2.112,2.112,0,0,1,37.4.6H49.1a2.112,2.112,0,0,1,2.1,2.1V20.5" fill="none" stroke="#344154" stroke-linecap="round" stroke-miterlimit="10" stroke-width="2"/><path d="M51.3,20.5V26a1.58,1.58,0,0,1-1.6,1.6H39.2" fill="none" stroke="#344154" stroke-linecap="round" stroke-miterlimit="10" stroke-width="2"/><path d="M39.6.6v1a1.216,1.216,0,0,0,1.2,1.2H46a1.216,1.216,0,0,0,1.2-1.2V.6" fill="none" stroke="#344154" stroke-linecap="round" stroke-miterlimit="10" stroke-width="2"/><path d="M41,24.3a.3.3,0,1,1-.3-.3Q41,24.15,41,24.3Z" fill="none" stroke="#344154" stroke-linecap="round" stroke-linejoin="round" stroke-miterlimit="10" stroke-width="2"/><path d="M43.6,24.3a.3.3,0,1,1-.3-.3Q43.6,24.15,43.6,24.3Z" fill="none" stroke="#344154" stroke-linecap="round" stroke-linejoin="round" stroke-miterlimit="10" stroke-width="2"/><circle cx="0.3" cy="0.3" r="0.3" transform="translate(45.6 24)" fill="none" stroke="#344154" stroke-linecap="round" stroke-linejoin="round" stroke-miterlimit="10" stroke-width="2"/><path d="M26.9,28.5l-1.4,1.3a3.176,3.176,0,0,1-2,.8H14.7a2.792,2.792,0,0,1-2-.8l-1.4-1.3" fill="none" stroke="#344154" stroke-linecap="round" stroke-linejoin="round" stroke-miterlimit="10" stroke-width="2"/><path d="M32.3,37.4H26.6v-1a1.96,1.96,0,0,1,1.7-2l4-.5" fill="none" stroke="#344154" stroke-linecap="round" stroke-miterlimit="10" stroke-width="2"/><path d="M5.5,33.8l4,.5a1.96,1.96,0,0,1,1.7,2v1H5.5" fill="none" stroke="#344154" stroke-linecap="round" stroke-miterlimit="10" stroke-width="2"/><line y2="9.5" transform="translate(2.5 31.4)" stroke-width="2" stroke="#344154" stroke-linecap="round" stroke-linejoin="round" stroke-miterlimit="10" fill="none"/><path d="M2.5,31.4.9,29.7A.908.908,0,0,1,.6,29V27.1a.9.9,0,0,1,.9-.9H5.1l3.1-6a3.317,3.317,0,0,1,2.6-1.3H27a3.317,3.317,0,0,1,2.6,1.3l3.1,6h3.6a.9.9,0,0,1,.9.9V29a.908.908,0,0,1-.3.7l-1.6,1.7v9.5" fill="none" stroke="#344154" stroke-linecap="round" stroke-linejoin="round" stroke-miterlimit="10" stroke-width="2"/><path d="M29.5,40.9v.4a2.9,2.9,0,0,0,2.9,2.9h0a2.9,2.9,0,0,0,2.9-2.9v-.4" fill="none" stroke="#344154" stroke-linecap="round" stroke-linejoin="round" stroke-miterlimit="10" stroke-width="2"/><path d="M8.2,40.9v.4a2.9,2.9,0,0,1-2.9,2.9h0a2.9,2.9,0,0,1-2.9-2.9v-.4" fill="none" stroke="#344154" stroke-linecap="round" stroke-linejoin="round" stroke-miterlimit="10" stroke-width="2"/><path d="M32.3,40.9H5.5" fill="none" stroke="#344154" stroke-linecap="round" stroke-linejoin="round" stroke-miterlimit="10" stroke-width="2"/><line x2="4.6" transform="translate(16.6 37.4)" stroke-width="2" stroke="#344154" stroke-linecap="round" stroke-linejoin="round" stroke-miterlimit="10" fill="none"/><path d="M27,21H10.8a1.086,1.086,0,0,0-.9.4L7.6,25.8H30.1l-2.3-4.4A.909.909,0,0,0,27,21Z" fill="#f6921e"/><path d="M165.28,233.981a5.075,5.075,0,1,0,5.075,5.075A5.075,5.075,0,0,0,165.28,233.981Zm-1.543,9.812,1.565-4.8h-2.387l3.909-4.672-1.522,4.672h2.445Z" transform="translate(-121.914 -225.483)" fill="#f6921e"/></g></g></svg>