<svg xmlns="http://www.w3.org/2000/svg" xmlns:xlink="http://www.w3.org/1999/xlink" width="119.664" height="40" viewBox="0 0 119.664 40"><defs><clipPath id="a"><path d="M110.135-40H9.535c-.367,0-.729,0-1.095,0-.306,0-.61.008-.919.013a13.215,13.215,0,0,0-2,.177,6.665,6.665,0,0,0-1.9.627A6.438,6.438,0,0,0,2-38,6.259,6.259,0,0,0,.819-36.382a6.6,6.6,0,0,0-.625,1.9,12.993,12.993,0,0,0-.179,2c-.009.307-.01.614-.015.921V-8.441c0,.31.006.611.015.922a12.992,12.992,0,0,0,.179,2,6.588,6.588,0,0,0,.625,1.9A6.208,6.208,0,0,0,2-2,6.274,6.274,0,0,0,3.616-.82a6.7,6.7,0,0,0,1.9.631,13.455,13.455,0,0,0,2,.177C7.83-.006,8.134,0,8.44,0c.366,0,.728,0,1.095,0h100.6c.359,0,.725,0,1.084,0,.3,0,.617,0,.922-.011a13.28,13.28,0,0,0,2-.177,6.8,6.8,0,0,0,1.908-.631A6.278,6.278,0,0,0,117.666-2a6.4,6.4,0,0,0,1.182-1.614,6.607,6.607,0,0,0,.619-1.9,13.515,13.515,0,0,0,.186-2c0-.311,0-.611,0-.922.008-.363.008-.725.008-1.094V-30.464c0-.366,0-.729-.008-1.092,0-.307,0-.614,0-.921a13.517,13.517,0,0,0-.186-2,6.62,6.62,0,0,0-.619-1.9,6.466,6.466,0,0,0-2.8-2.8,6.768,6.768,0,0,0-1.908-.627,13.045,13.045,0,0,0-2-.177c-.3,0-.617-.011-.922-.013-.359,0-.725,0-1.084,0Z" fill="none"/></clipPath><clipPath id="b"><path d="M-28,85H562V-65H-28Z" fill="none"/></clipPath><clipPath id="c"><path d="M8.445-.875c-.3,0-.6,0-.9-.011a12.687,12.687,0,0,1-1.869-.163A5.884,5.884,0,0,1,4.015-1.6a5.406,5.406,0,0,1-1.4-1.017A5.321,5.321,0,0,1,1.6-4.01a5.722,5.722,0,0,1-.543-1.657A12.414,12.414,0,0,1,.888-7.542C.881-7.753.873-8.455.873-8.455v-23.1s.009-.691.015-.895a12.37,12.37,0,0,1,.166-1.872A5.756,5.756,0,0,1,1.6-35.984a5.373,5.373,0,0,1,1.015-1.4,5.565,5.565,0,0,1,1.4-1.022,5.823,5.823,0,0,1,1.653-.544,12.587,12.587,0,0,1,1.876-.164l.9-.012H111.214l.913.013a12.386,12.386,0,0,1,1.858.163,5.939,5.939,0,0,1,1.671.548,5.594,5.594,0,0,1,2.415,2.42,5.765,5.765,0,0,1,.535,1.649,13,13,0,0,1,.174,1.887c0,.283,0,.587,0,.89.008.375.008.732.008,1.092V-9.535c0,.363,0,.718-.008,1.075,0,.325,0,.623,0,.93a12.737,12.737,0,0,1-.171,1.854,5.74,5.74,0,0,1-.54,1.67,5.483,5.483,0,0,1-1.016,1.386,5.414,5.414,0,0,1-1.4,1.022,5.863,5.863,0,0,1-1.668.55,12.544,12.544,0,0,1-1.869.163c-.293.007-.6.011-.9.011l-1.084,0Z" fill="none"/></clipPath><clipPath id="e"><path d="M42.3-12.86H37.569L36.432-9.5h-2l4.483-12.418h2.083L45.477-9.5H43.438Zm-4.243-1.549h3.752l-1.85-5.447H39.91Zm17.1.379c0,2.813-1.506,4.621-3.778,4.621a3.069,3.069,0,0,1-2.849-1.584H48.49v4.484H46.631V-18.558h1.8v1.506h.034a3.212,3.212,0,0,1,2.883-1.6C53.645-18.652,55.16-16.836,55.16-14.03Zm-1.91,0c0-1.833-.947-3.038-2.393-3.038-1.42,0-2.375,1.23-2.375,3.038,0,1.824.955,3.046,2.375,3.046C52.3-10.984,53.25-12.181,53.25-14.03Zm11.875,0c0,2.813-1.506,4.621-3.778,4.621A3.069,3.069,0,0,1,58.5-10.993h-.043v4.484H56.6V-18.558h1.8v1.506h.034a3.212,3.212,0,0,1,2.883-1.6C63.61-18.652,65.125-16.836,65.125-14.03Zm-1.91,0c0-1.833-.947-3.038-2.393-3.038-1.42,0-2.375,1.23-2.375,3.038,0,1.824.955,3.046,2.375,3.046,1.445,0,2.393-1.2,2.393-3.046Zm8.5,1.066c.138,1.231,1.334,2.04,2.969,2.04,1.566,0,2.693-.809,2.693-1.919,0-.964-.68-1.541-2.289-1.937l-1.609-.388c-2.28-.551-3.339-1.617-3.339-3.348,0-2.143,1.867-3.614,4.519-3.614,2.624,0,4.423,1.472,4.483,3.614H77.261c-.112-1.239-1.137-1.987-2.634-1.987s-2.521.757-2.521,1.858c0,.878.654,1.395,2.255,1.79l1.368.336c2.548.6,3.606,1.626,3.606,3.442,0,2.323-1.851,3.778-4.794,3.778-2.754,0-4.613-1.421-4.733-3.667ZM83.346-20.7v2.143h1.722v1.472H83.346v4.991c0,.775.345,1.137,1.1,1.137A5.807,5.807,0,0,0,85.059-11v1.463a5.1,5.1,0,0,1-1.032.086c-1.833,0-2.548-.688-2.548-2.444v-5.189H80.163v-1.472h1.316V-20.7Zm2.719,6.67c0-2.849,1.678-4.639,4.294-4.639s4.295,1.79,4.295,4.639-1.661,4.639-4.295,4.639S86.065-11.174,86.065-14.03Zm6.7,0c0-1.954-.9-3.107-2.4-3.107s-2.4,1.162-2.4,3.107c0,1.962.895,3.106,2.4,3.106s2.4-1.145,2.4-3.106Zm3.426-4.527h1.772v1.541H98a2.159,2.159,0,0,1,2.178-1.636,2.866,2.866,0,0,1,.637.069v1.738a2.6,2.6,0,0,0-.835-.112,1.873,1.873,0,0,0-1.447.6,1.873,1.873,0,0,0-.489,1.487V-9.5H96.186Zm13.2,6.395c-.25,1.644-1.851,2.771-3.9,2.771-2.634,0-4.269-1.765-4.269-4.6s1.644-4.682,4.19-4.682c2.5,0,4.08,1.721,4.08,4.466v.637h-6.395v.112a2.358,2.358,0,0,0,.639,1.832,2.358,2.358,0,0,0,1.8.733,2.048,2.048,0,0,0,2.091-1.273Zm-6.282-2.7h4.526a2.177,2.177,0,0,0-.608-1.634,2.178,2.178,0,0,0-1.613-.664,2.292,2.292,0,0,0-1.632.669,2.292,2.292,0,0,0-.674,1.629Z" fill="none"/></clipPath><clipPath id="g"><path d="M37.826-31.269a2.64,2.64,0,0,1,2.106.818,2.64,2.64,0,0,1,.7,2.147c0,1.906-1.03,3-2.808,3H35.671v-5.967ZM36.6-26.146h1.125a1.876,1.876,0,0,0,1.495-.6,1.876,1.876,0,0,0,.473-1.541,1.881,1.881,0,0,0-.481-1.531,1.881,1.881,0,0,0-1.487-.6H36.6Zm5.083-1.41a2.133,2.133,0,0,1,1-2.016,2.133,2.133,0,0,1,2.25,0,2.133,2.133,0,0,1,1,2.016,2.134,2.134,0,0,1-1,2.019,2.134,2.134,0,0,1-2.252,0A2.134,2.134,0,0,1,41.681-27.556Zm3.333,0c0-.976-.438-1.547-1.208-1.547s-1.207.571-1.207,1.547.435,1.55,1.207,1.55,1.208-.57,1.208-1.55Zm6.56,2.253h-.922l-.931-3.316h-.07L48.724-25.3h-.913l-1.241-4.5h.9l.807,3.436h.066l.926-3.436h.853l.926,3.436h.07l.8-3.436h.889Zm2.28-4.5h.855v.715h.066a1.348,1.348,0,0,1,1.344-.8,1.465,1.465,0,0,1,1.182.463,1.465,1.465,0,0,1,.377,1.212V-25.3h-.889v-2.692c0-.724-.314-1.083-.972-1.083a1.033,1.033,0,0,0-.8.323,1.033,1.033,0,0,0-.275.818V-25.3h-.889Zm5.24-1.758h.889V-25.3h-.889Zm2.124,4.007a2.133,2.133,0,0,1,1-2.016,2.133,2.133,0,0,1,2.25,0,2.133,2.133,0,0,1,1,2.016,2.134,2.134,0,0,1-1,2.019,2.134,2.134,0,0,1-2.252,0,2.134,2.134,0,0,1-1-2.019Zm3.333,0c0-.976-.438-1.547-1.208-1.547s-1.207.571-1.207,1.547.435,1.55,1.207,1.55,1.208-.57,1.208-1.55Zm1.85.98c0-.811.6-1.278,1.675-1.344l1.22-.07v-.389c0-.476-.314-.744-.922-.744-.5,0-.84.182-.938.5h-.86c.091-.773.818-1.27,1.84-1.27,1.129,0,1.766.562,1.766,1.513V-25.3h-.855v-.633h-.07a1.515,1.515,0,0,1-1.353.707,1.36,1.36,0,0,1-1.049-.341,1.36,1.36,0,0,1-.451-1.007ZM69.3-26.96v-.376l-1.1.07c-.62.042-.9.252-.9.649s.352.641.835.641a1.061,1.061,0,0,0,.792-.245A1.062,1.062,0,0,0,69.3-26.96Zm2.053-.6c0-1.423.731-2.324,1.869-2.324a1.484,1.484,0,0,1,1.381.79h.066v-2.473h.889V-25.3H74.7v-.711h-.07a1.563,1.563,0,0,1-1.414.786C72.072-25.228,71.348-26.129,71.348-27.556Zm.918,0c0,.955.45,1.53,1.2,1.53s1.212-.583,1.212-1.526-.468-1.53-1.212-1.53-1.2.579-1.2,1.526Zm6.964,0a2.133,2.133,0,0,1,1-2.016,2.133,2.133,0,0,1,2.25,0,2.133,2.133,0,0,1,1,2.016,2.134,2.134,0,0,1-1,2.019,2.134,2.134,0,0,1-2.252,0,2.134,2.134,0,0,1-1-2.019Zm3.333,0c0-.976-.438-1.547-1.208-1.547s-1.207.571-1.207,1.547.435,1.55,1.207,1.55S82.563-26.576,82.563-27.556Zm2.106-2.25h.855v.715h.066a1.348,1.348,0,0,1,1.344-.8,1.465,1.465,0,0,1,1.182.463,1.465,1.465,0,0,1,.377,1.212V-25.3h-.889v-2.692c0-.724-.314-1.083-.972-1.083a1.033,1.033,0,0,0-.8.323,1.033,1.033,0,0,0-.275.818V-25.3h-.889Zm8.846-1.121v1.142h.976v.749h-.976v2.315c0,.472.194.678.637.678a2.966,2.966,0,0,0,.339-.021v.74a2.916,2.916,0,0,1-.483.045c-.988,0-1.382-.348-1.382-1.216v-2.543h-.715v-.749h.715v-1.142Zm2.189-.637h.881v2.481h.07a1.386,1.386,0,0,1,1.373-.807,1.483,1.483,0,0,1,1.17.475,1.483,1.483,0,0,1,.381,1.2V-25.3h-.89V-27.99c0-.719-.335-1.083-.963-1.083a1.052,1.052,0,0,0-.832.307,1.052,1.052,0,0,0-.3.834v2.63H95.7Zm9.057,5.045a1.828,1.828,0,0,1-1.951,1.3,2.045,2.045,0,0,1-1.578-.681,2.046,2.046,0,0,1-.5-1.644,2.077,2.077,0,0,1,.5-1.65,2.077,2.077,0,0,1,1.575-.7c1.253,0,2.009.856,2.009,2.27v.31h-3.18v.05a1.19,1.19,0,0,0,.314.91,1.19,1.19,0,0,0,.885.38,1.079,1.079,0,0,0,1.071-.546Zm-3.126-1.451h2.274a1.087,1.087,0,0,0-.3-.829,1.087,1.087,0,0,0-.812-.338,1.152,1.152,0,0,0-.829.337,1.151,1.151,0,0,0-.337.829Z" fill="none"/></clipPath><clipPath id="i"><path d="M24.769-19.7a4.949,4.949,0,0,1,2.357-4.152,5.066,5.066,0,0,0-3.991-2.158c-1.679-.176-3.307,1-4.163,1-.872,0-2.19-.987-3.609-.958a5.315,5.315,0,0,0-4.473,2.728c-1.934,3.348-.491,8.269,1.361,10.976.927,1.325,2.01,2.806,3.428,2.753,1.387-.058,1.905-.884,3.579-.884,1.659,0,2.145.884,3.591.851,1.488-.024,2.426-1.331,3.321-2.669A10.962,10.962,0,0,0,27.688-15.3a4.782,4.782,0,0,1-2.919-4.4Zm-2.732-8.09a4.872,4.872,0,0,0,1.115-3.491,4.957,4.957,0,0,0-3.208,1.66A4.636,4.636,0,0,0,18.8-26.259a4.1,4.1,0,0,0,3.237-1.53Z" fill="none"/></clipPath></defs><g transform="translate(0 40)"><g clip-path="url(#a)"><g clip-path="url(#b)"><path d="M-5-45H124.664V5H-5Z" fill="#a6a6a6"/></g></g><g clip-path="url(#c)"><g clip-path="url(#b)"><path d="M-4.127-44.125H123.791V4.127H-4.127Z"/></g></g><g clip-path="url(#e)"><g clip-path="url(#b)"><path d="M29.427-27.129h85.061v25.62H29.427Z" fill="#fff"/></g></g><g clip-path="url(#g)"><g clip-path="url(#b)"><path d="M30.671-36.563h79.144V-20.2H30.671Z" fill="#fff"/></g></g><g clip-path="url(#i)"><g clip-path="url(#b)"><path d="M4.972-36.28H32.688V-4.5H4.972Z" fill="#fff"/></g></g></g></svg>