<svg xmlns="http://www.w3.org/2000/svg" xmlns:xlink="http://www.w3.org/1999/xlink" width="135" height="40" viewBox="0 0 135 40"><defs><clipPath id="a"><path d="M5-40H130a5,5,0,0,1,5,5V-5a5,5,0,0,1-5,5H5A5,5,0,0,1,0-5V-35A5,5,0,0,1,5-40Z" fill="none"/></clipPath><clipPath id="b"><path d="M-297,85H293V-65H-297Z" fill="none"/></clipPath><clipPath id="c"><path d="M130-39.2a4.2,4.2,0,0,1,4.2,4.2V-5A4.2,4.2,0,0,1,130-.8H5A4.2,4.2,0,0,1,.8-5V-35A4.2,4.2,0,0,1,5-39.2Zm0-.8H5a5,5,0,0,0-5,5V-5A5,5,0,0,0,5,0H130a5,5,0,0,0,5-5V-35A5,5,0,0,0,130-40Z" fill="none"/></clipPath><clipPath id="e"><path d="M68.14-18.25a4.25,4.25,0,0,0-4.23,4.263A4.25,4.25,0,0,0,68.167-9.75,4.25,4.25,0,0,0,72.41-14a4.19,4.19,0,0,0-1.234-3.031A4.19,4.19,0,0,0,68.14-18.25Zm0,6.83a2.58,2.58,0,0,1-2.508-1.462,2.58,2.58,0,0,1,.439-2.869A2.58,2.58,0,0,1,68.9-16.4,2.58,2.58,0,0,1,70.54-14a2.46,2.46,0,0,1-.656,1.8,2.46,2.46,0,0,1-1.744.784Zm-9.31-6.83a4.25,4.25,0,0,0-4.24,4.257A4.25,4.25,0,0,0,58.843-9.75,4.25,4.25,0,0,0,63.09-14a4.19,4.19,0,0,0-1.234-3.031A4.19,4.19,0,0,0,58.82-18.25Zm0,6.83a2.58,2.58,0,0,1-2.515-1.454,2.58,2.58,0,0,1,.432-2.872,2.58,2.58,0,0,1,2.831-.65A2.58,2.58,0,0,1,61.22-14a2.46,2.46,0,0,1-.656,1.8,2.46,2.46,0,0,1-1.744.784ZM47.74-16.94v1.8h4.32a3.77,3.77,0,0,1-1,2.27,4.42,4.42,0,0,1-3.33,1.32,4.8,4.8,0,0,1-4.8-4.8,4.8,4.8,0,0,1,4.8-4.8A4.6,4.6,0,0,1,51-19.86l1.27-1.27A6.29,6.29,0,0,0,47.74-23,6.61,6.61,0,0,0,41.8-19.774a6.61,6.61,0,0,0,0,6.758A6.61,6.61,0,0,0,47.74-9.79a6,6,0,0,0,4.61-1.85,6,6,0,0,0,1.56-4.22,5.869,5.869,0,0,0-.1-1.13Zm45.31,1.4a4,4,0,0,0-3.64-2.71,4,4,0,0,0-2.921,1.259A4,4,0,0,0,85.41-14a4.16,4.16,0,0,0,1.207,3.022A4.16,4.16,0,0,0,89.63-9.75a4.23,4.23,0,0,0,3.54-1.88l-1.45-1a2.43,2.43,0,0,1-2.09,1.18,2.16,2.16,0,0,1-2.06-1.29l5.69-2.35Zm-5.8,1.42a2.33,2.33,0,0,1,.589-1.706A2.33,2.33,0,0,1,89.47-16.6a1.65,1.65,0,0,1,1.58.9ZM82.63-10H84.5V-22.5H82.63Zm-3.06-7.3H79.5a3,3,0,0,0-2.24-1,4.26,4.26,0,0,0-4.054,4.255A4.26,4.26,0,0,0,77.26-9.79a2.9,2.9,0,0,0,2.24-1h.06v.61c0,1.63-.87,2.5-2.27,2.5a2.35,2.35,0,0,1-2.14-1.51l-1.63.68A4.05,4.05,0,0,0,77.29-6c2.19,0,4-1.29,4-4.43V-18H79.57Zm-2.14,5.88A2.59,2.59,0,0,1,75.067-14a2.59,2.59,0,0,1,2.363-2.58,2.4,2.4,0,0,1,1.679.811A2.4,2.4,0,0,1,79.7-14a2.38,2.38,0,0,1-.588,1.778,2.38,2.38,0,0,1-1.692.8ZM101.81-22.5H97.34V-10h1.87v-4.74h2.61a3.89,3.89,0,0,0,3.6-1.855,3.89,3.89,0,0,0,0-4.05,3.89,3.89,0,0,0-3.6-1.855Zm0,6H99.2v-4.26h2.65A2.145,2.145,0,0,1,104-18.615a2.145,2.145,0,0,1-2.145,2.145Zm11.53-1.8a3.5,3.5,0,0,0-3.33,1.91l1.66.69a1.77,1.77,0,0,1,1.7-.92,1.8,1.8,0,0,1,1.337.386,1.8,1.8,0,0,1,.663,1.224v.13a4.13,4.13,0,0,0-1.95-.48c-1.79,0-3.6,1-3.6,2.81a2.89,2.89,0,0,0,.969,2.03,2.89,2.89,0,0,0,2.131.72,2.63,2.63,0,0,0,2.4-1.2h.06v1h1.8v-4.81c0-2.19-1.66-3.46-3.79-3.46Zm-.23,6.85c-.61,0-1.46-.31-1.46-1.06,0-1,1.06-1.33,2-1.33a3.32,3.32,0,0,1,1.7.42,2.26,2.26,0,0,1-2.19,2ZM123.74-18l-2.14,5.42h-.06L119.32-18h-2l3.33,7.58-1.9,4.21h1.95L125.82-18Zm-16.81,8h1.87V-22.5h-1.87Z" fill="none"/></clipPath><clipPath id="g"><path d="M47.42-29.76a2.71,2.71,0,0,1-.75,2,2.91,2.91,0,0,1-2.2.89,3.15,3.15,0,0,1-2.888-1.951,3.15,3.15,0,0,1,.678-3.419,3,3,0,0,1,2.21-.9,3.1,3.1,0,0,1,1.23.25,2.47,2.47,0,0,1,.94.67l-.53.53a2,2,0,0,0-1.64-.71,2.32,2.32,0,0,0-1.676.7A2.32,2.32,0,0,0,42.14-30a2.36,2.36,0,0,0,1.423,2.2,2.36,2.36,0,0,0,2.577-.469,1.89,1.89,0,0,0,.5-1.22H44.47v-.72h2.91a2.54,2.54,0,0,1,.04.45ZM52-32.26H49.3v1.9h2.46v.72H49.3v1.9H52V-27H48.5v-6H52ZM55.28-27h-.77v-5.26H52.83V-33H57v.74H55.28Zm4.66,0v-6h.77v6Zm4.19,0h-.77v-5.26H61.68V-33H65.8v.74H64.13Zm9.48-.78a3.12,3.12,0,0,1-4.4,0,3.24,3.24,0,0,1,0-4.45,3.1,3.1,0,0,1,2.2-.916,3.1,3.1,0,0,1,2.2.916,3.23,3.23,0,0,1,0,4.45Zm-3.83-.5a2.31,2.31,0,0,0,3.26,0,2.56,2.56,0,0,0,0-3.44,2.31,2.31,0,0,0-3.26,0,2.56,2.56,0,0,0,0,3.44ZM75.58-27v-6h.94l2.92,4.67V-33h.77v6h-.8l-3.05-4.89V-27Z" fill="none"/></clipPath><clipPath id="i"><path d="M10.44-32.46a2,2,0,0,0-.46,1.4V-8.94a2,2,0,0,0,.46,1.4l.07.07L22.9-19.85v-.29L10.51-32.53Z" fill="none"/></clipPath><linearGradient id="k" x1="0.074" y1="0.187" x2="0.074" y2="25.787" gradientUnits="objectBoundingBox"><stop offset="0"/><stop offset="0" stop-color="#00a0ff"/><stop offset="0.1" stop-color="#00abff"/><stop offset="0.2" stop-color="#00b7ff"/><stop offset="0.3" stop-color="#00c1ff"/><stop offset="0.4" stop-color="#00c9ff"/><stop offset="0.5" stop-color="#00d1ff"/><stop offset="0.6" stop-color="#00d7ff"/><stop offset="0.7" stop-color="#00dcff"/><stop offset="0.8" stop-color="#00e0ff"/><stop offset="0.9" stop-color="#00e1ff"/><stop offset="1" stop-color="#00e3ff"/><stop offset="1"/></linearGradient><linearGradient id="l" x1="0.161" y1="0.218" x2="0.037" y2="0.637" gradientUnits="objectBoundingBox"><stop offset="0" stop-color="#00a0ff"/><stop offset="0.1" stop-color="#00abff"/><stop offset="0.2" stop-color="#00b7ff"/><stop offset="0.3" stop-color="#00c1ff"/><stop offset="0.4" stop-color="#00c9ff"/><stop offset="0.5" stop-color="#00d1ff"/><stop offset="0.6" stop-color="#00d7ff"/><stop offset="0.7" stop-color="#00dcff"/><stop offset="0.8" stop-color="#00e0ff"/><stop offset="0.9" stop-color="#00e1ff"/><stop offset="1" stop-color="#00e3ff"/></linearGradient><clipPath id="m"><path d="M27-15.72l-4.1-4.13v-.29L27-24.28l.09.05L32-21.44c1.4.79,1.4,2.09,0,2.89l-4.89,2.78Z" fill="none"/></clipPath><linearGradient id="o" x1="0.17" y1="0.393" x2="0.17" y2="25.993" gradientUnits="objectBoundingBox"><stop offset="0"/><stop offset="0" stop-color="#ffe000"/><stop offset="0.1" stop-color="gold"/><stop offset="0.2" stop-color="#ffcf00"/><stop offset="0.3" stop-color="#ffc600"/><stop offset="0.4" stop-color="#ffbe00"/><stop offset="0.5" stop-color="#ffb700"/><stop offset="0.6" stop-color="#ffb100"/><stop offset="0.7" stop-color="#fa0"/><stop offset="0.8" stop-color="#ffa400"/><stop offset="0.9" stop-color="#ffa000"/><stop offset="1" stop-color="#ff9c00"/><stop offset="1"/></linearGradient><linearGradient id="p" x1="0.251" y1="0.5" x2="0.071" y2="0.5" gradientUnits="objectBoundingBox"><stop offset="0" stop-color="#ffe000"/><stop offset="0.1" stop-color="gold"/><stop offset="0.2" stop-color="#ffcf00"/><stop offset="0.3" stop-color="#ffc600"/><stop offset="0.4" stop-color="#ffbe00"/><stop offset="0.5" stop-color="#ffb700"/><stop offset="0.6" stop-color="#ffb100"/><stop offset="0.7" stop-color="#fa0"/><stop offset="0.8" stop-color="#ffa400"/><stop offset="0.9" stop-color="#ffa000"/><stop offset="1" stop-color="#ff9c00"/></linearGradient><clipPath id="q"><path d="M27.12-15.78,22.9-20,10.44-7.54a1.63,1.63,0,0,0,2.08.06l14.61-8.3" fill="none"/></clipPath><linearGradient id="s" x1="0.077" y1="0.5" x2="0.077" y2="26.1" gradientUnits="objectBoundingBox"><stop offset="0"/><stop offset="0" stop-color="#ff3a44"/><stop offset="0.1" stop-color="#f93647"/><stop offset="0.2" stop-color="#f3324a"/><stop offset="0.3" stop-color="#ed2e4d"/><stop offset="0.4" stop-color="#e72a50"/><stop offset="0.5" stop-color="#e12653"/><stop offset="0.6" stop-color="#db2156"/><stop offset="0.7" stop-color="#d51d59"/><stop offset="0.8" stop-color="#cf195c"/><stop offset="0.9" stop-color="#c9155f"/><stop offset="1" stop-color="#c31162"/><stop offset="1"/></linearGradient><linearGradient id="t" x1="0.184" y1="0.558" x2="0.015" y2="1.126" gradientUnits="objectBoundingBox"><stop offset="0" stop-color="#ff3a44"/><stop offset="0.1" stop-color="#f93647"/><stop offset="0.2" stop-color="#f3324a"/><stop offset="0.3" stop-color="#ed2e4d"/><stop offset="0.4" stop-color="#e72a50"/><stop offset="0.5" stop-color="#e12653"/><stop offset="0.6" stop-color="#db2156"/><stop offset="0.7" stop-color="#d51d59"/><stop offset="0.8" stop-color="#cf195c"/><stop offset="0.9" stop-color="#c9155f"/><stop offset="1" stop-color="#c31162"/></linearGradient><clipPath id="u"><path d="M27.12-24.22l-14.61-8.3a1.63,1.63,0,0,0-2.08.06L22.9-20Z" fill="none"/></clipPath><linearGradient id="w" x1="0.077" y1="0.178" x2="0.077" y2="25.778" gradientUnits="objectBoundingBox"><stop offset="0"/><stop offset="0" stop-color="#32a071"/><stop offset="0.1" stop-color="#2baa71"/><stop offset="0.2" stop-color="#25b472"/><stop offset="0.3" stop-color="#20bd73"/><stop offset="0.4" stop-color="#1ac773"/><stop offset="0.5" stop-color="#14d174"/><stop offset="0.6" stop-color="#0fd874"/><stop offset="0.7" stop-color="#0bdf75"/><stop offset="0.8" stop-color="#06e775"/><stop offset="0.9" stop-color="#03eb75"/><stop offset="1" stop-color="#00f076"/><stop offset="1"/></linearGradient><linearGradient id="x" x1="0.054" y1="0.005" x2="0.129" y2="0.259" gradientUnits="objectBoundingBox"><stop offset="0" stop-color="#32a071"/><stop offset="0.1" stop-color="#2baa71"/><stop offset="0.2" stop-color="#25b472"/><stop offset="0.3" stop-color="#20bd73"/><stop offset="0.4" stop-color="#1ac773"/><stop offset="0.5" stop-color="#14d174"/><stop offset="0.6" stop-color="#0fd874"/><stop offset="0.7" stop-color="#0bdf75"/><stop offset="0.8" stop-color="#06e775"/><stop offset="0.9" stop-color="#03eb75"/><stop offset="1" stop-color="#00f076"/></linearGradient><clipPath id="y"><path d="M27-15.87,12.51-7.62a1.67,1.67,0,0,1-2,0l-.07.07.07.07a1.66,1.66,0,0,0,2,0l14.61-8.3Z" fill="none"/></clipPath><clipPath id="aa"><path d="M10.44-7.68a2,2,0,0,1-.46-1.4v.15a2,2,0,0,0,.46,1.4l.07-.07ZM32-18.7l-5,2.83.09.09L32-18.56A1.75,1.75,0,0,0,33-20,1.86,1.86,0,0,1,32-18.7Z" fill="none"/></clipPath><clipPath id="ac"><path d="M12.51-32.38,32-21.3A1.86,1.86,0,0,1,33-20a1.75,1.75,0,0,0-1-1.44L12.51-32.52c-1.4-.79-2.54-.13-2.54,1.47v.15c.03-1.61,1.15-2.27,2.54-1.48Z" fill="none"/></clipPath></defs><g transform="translate(0 40)"><g clip-path="url(#a)"><g clip-path="url(#b)"><path d="M-5-45H140V5H-5Z"/></g></g><g clip-path="url(#c)"><g clip-path="url(#b)"><path d="M-5-45H140V5H-5Z" fill="#a6a6a6"/></g></g><g clip-path="url(#e)"><g clip-path="url(#b)"><path d="M35.873-28.005H130.82V-1H35.873Z" fill="#fff"/></g></g><g clip-path="url(#g)"><g clip-path="url(#b)"><path d="M36.345-38.146H85.21v16.278H36.345Z" fill="#fff"/></g></g><g clip-path="url(#i)"><g clip-path="url(#b)"><g opacity="0"><g transform="translate(9.976 -32.53)"><path d="M-9.976-7.47h135v40h-135Z" fill="url(#k)"/></g></g><g transform="translate(9.976 -32.53)"><path d="M-9.976-7.47h135v40h-135Z" fill="url(#l)"/></g></g></g><g clip-path="url(#m)"><g clip-path="url(#b)"><g opacity="0"><g transform="translate(22.9 -24.28)"><path d="M-22.9-15.72h135v40h-135Z" fill="url(#o)"/></g></g><g transform="translate(22.9 -24.28)"><path d="M-22.9-15.72h135v40h-135Z" fill="url(#p)"/></g></g></g><g clip-path="url(#q)"><g clip-path="url(#b)"><g opacity="0"><g transform="translate(10.44 -20)"><path d="M-10.44-20h135V20h-135Z" fill="url(#s)"/></g></g><g transform="translate(10.44 -20)"><path d="M-10.44-20h135V20h-135Z" fill="url(#t)"/></g></g></g><g clip-path="url(#u)"><g clip-path="url(#b)"><g opacity="0"><g transform="translate(10.43 -32.866)"><path d="M-10.43-7.134h135v40h-135Z" fill="url(#w)"/></g></g><g transform="translate(10.43 -32.866)"><path d="M-10.43-7.134h135v40h-135Z" fill="url(#x)"/></g></g></g><g clip-path="url(#y)"><g clip-path="url(#b)"><path d="M5.44-20.87H32.12V-2.145H5.44Z" fill="rgba(0,0,0,0.2)"/></g></g><g clip-path="url(#aa)"><g clip-path="url(#b)"><path d="M4.976-25H38V-2.53H4.976Z" fill="rgba(0,0,0,0.12)"/></g></g><g clip-path="url(#ac)"><g clip-path="url(#b)"><path d="M4.97-37.854H38V-15H4.97Z" fill="rgba(255,255,255,0.25)"/></g></g></g></svg>