<svg xmlns="http://www.w3.org/2000/svg" width="128.7" height="72.782" viewBox="0 0 128.7 72.782"><g transform="translate(-367 -991.068)"><g transform="translate(443.4 1018.4)"><path d="M14.3,10.9a8.788,8.788,0,0,1,9.2,0" fill="none" stroke="#344154" stroke-linecap="round" stroke-linejoin="round" stroke-miterlimit="10" stroke-width="2"/><path d="M12,8a12.654,12.654,0,0,1,6.9-2,13.557,13.557,0,0,1,6.9,2" fill="none" stroke="#344154" stroke-linecap="round" stroke-linejoin="round" stroke-miterlimit="10" stroke-width="2"/><path d="M17,13.4a3.83,3.83,0,0,1,1.9-.5,4.136,4.136,0,0,1,1.9.5" fill="none" stroke="#344154" stroke-linecap="round" stroke-linejoin="round" stroke-miterlimit="10" stroke-width="2"/><path d="M19.1,15.6a.2.2,0,1,1-.2-.2A.215.215,0,0,1,19.1,15.6Z" fill="none" stroke="#344154" stroke-linecap="round" stroke-linejoin="round" stroke-miterlimit="10" stroke-width="2"/><path d="M35.3,24.1V2.7A2.112,2.112,0,0,1,37.4.6H49.1a2.112,2.112,0,0,1,2.1,2.1V20.5" fill="none" stroke="#344154" stroke-linecap="round" stroke-miterlimit="10" stroke-width="2"/><path d="M51.3,20.5V26a1.58,1.58,0,0,1-1.6,1.6H39.2" fill="none" stroke="#344154" stroke-linecap="round" stroke-miterlimit="10" stroke-width="2"/><path d="M39.6.6v1a1.216,1.216,0,0,0,1.2,1.2H46a1.216,1.216,0,0,0,1.2-1.2V.6" fill="none" stroke="#344154" stroke-linecap="round" stroke-miterlimit="10" stroke-width="2"/><path d="M41,24.3a.3.3,0,1,1-.3-.3Q41,24.15,41,24.3Z" fill="none" stroke="#344154" stroke-linecap="round" stroke-linejoin="round" stroke-miterlimit="10" stroke-width="2"/><path d="M43.6,24.3a.3.3,0,1,1-.3-.3Q43.6,24.15,43.6,24.3Z" fill="none" stroke="#344154" stroke-linecap="round" stroke-linejoin="round" stroke-miterlimit="10" stroke-width="2"/><circle cx="0.3" cy="0.3" r="0.3" transform="translate(45.6 24)" fill="none" stroke="#344154" stroke-linecap="round" stroke-linejoin="round" stroke-miterlimit="10" stroke-width="2"/><path d="M26.9,28.5l-1.4,1.3a3.176,3.176,0,0,1-2,.8H14.7a2.792,2.792,0,0,1-2-.8l-1.4-1.3" fill="none" stroke="#344154" stroke-linecap="round" stroke-linejoin="round" stroke-miterlimit="10" stroke-width="2"/><path d="M32.3,37.4H26.6v-1a1.96,1.96,0,0,1,1.7-2l4-.5" fill="none" stroke="#344154" stroke-linecap="round" stroke-miterlimit="10" stroke-width="2"/><path d="M5.5,33.8l4,.5a1.96,1.96,0,0,1,1.7,2v1H5.5" fill="none" stroke="#344154" stroke-linecap="round" stroke-miterlimit="10" stroke-width="2"/><line y2="9.5" transform="translate(2.5 31.4)" stroke-width="2" stroke="#344154" stroke-linecap="round" stroke-linejoin="round" stroke-miterlimit="10" fill="none"/><path d="M2.5,31.4.9,29.7A.908.908,0,0,1,.6,29V27.1a.9.9,0,0,1,.9-.9H5.1l3.1-6a3.317,3.317,0,0,1,2.6-1.3H27a3.317,3.317,0,0,1,2.6,1.3l3.1,6h3.6a.9.9,0,0,1,.9.9V29a.908.908,0,0,1-.3.7l-1.6,1.7v9.5" fill="none" stroke="#344154" stroke-linecap="round" stroke-linejoin="round" stroke-miterlimit="10" stroke-width="2"/><path d="M29.5,40.9v.4a2.9,2.9,0,0,0,2.9,2.9h0a2.9,2.9,0,0,0,2.9-2.9v-.4" fill="none" stroke="#344154" stroke-linecap="round" stroke-linejoin="round" stroke-miterlimit="10" stroke-width="2"/><path d="M8.2,40.9v.4a2.9,2.9,0,0,1-2.9,2.9h0a2.9,2.9,0,0,1-2.9-2.9v-.4" fill="none" stroke="#344154" stroke-linecap="round" stroke-linejoin="round" stroke-miterlimit="10" stroke-width="2"/><path d="M32.3,40.9H5.5" fill="none" stroke="#344154" stroke-linecap="round" stroke-linejoin="round" stroke-miterlimit="10" stroke-width="2"/><line x2="4.6" transform="translate(16.6 37.4)" stroke-width="2" stroke="#344154" stroke-linecap="round" stroke-linejoin="round" stroke-miterlimit="10" fill="none"/><path d="M27,21H10.8a1.086,1.086,0,0,0-.9.4L7.6,25.8H30.1l-2.3-4.4A.909.909,0,0,0,27,21Z" fill="#f6921e"/><path d="M165.28,233.981a5.075,5.075,0,1,0,5.075,5.075A5.075,5.075,0,0,0,165.28,233.981Zm-1.543,9.812,1.565-4.8h-2.387l3.909-4.672-1.522,4.672h2.445Z" transform="translate(-121.913 -225.483)" fill="#f6921e"/></g><g transform="translate(367.4 991.468)"><path d="M54.337,27.1a11.569,11.569,0,1,1-23.137,0" transform="translate(15.979 13.838)" fill="none" stroke="#344154" stroke-linecap="round" stroke-linejoin="round" stroke-miterlimit="10" stroke-width="2"/><path d="M46.344,28.875H32.188A2.566,2.566,0,0,1,29.6,26.288h0A2.566,2.566,0,0,1,32.188,23.7H54.868a2.566,2.566,0,0,1,2.588,2.588h0a2.566,2.566,0,0,1-2.588,2.588h-2.74" transform="translate(15.144 12.063)" fill="none" stroke="#344154" stroke-linecap="round" stroke-linejoin="round" stroke-miterlimit="10" stroke-width="2"/><line y1="6.85" transform="translate(52.811 29.065)" stroke-width="2" stroke="#344154" stroke-linecap="round" stroke-linejoin="round" stroke-miterlimit="10" fill="none"/><line y1="6.85" transform="translate(64.685 29.065)" stroke-width="2" stroke="#344154" stroke-linecap="round" stroke-linejoin="round" stroke-miterlimit="10" fill="none"/><path d="M45.954,34.7V48.552a5.068,5.068,0,0,1-5.023,5.023H30.123A5.068,5.068,0,0,1,25.1,48.552V42.463" transform="translate(12.794 17.807)" fill="none" stroke="#344154" stroke-linecap="round" stroke-linejoin="round" stroke-miterlimit="10" stroke-width="2"/><line y1="1.979" transform="translate(12.016 44.592)" stroke-width="2" stroke="#344154" stroke-linecap="round" stroke-linejoin="round" stroke-miterlimit="10" fill="none"/><line y1="1.979" transform="translate(12.016 38.503)" stroke-width="2" stroke="#344154" stroke-linecap="round" stroke-linejoin="round" stroke-miterlimit="10" fill="none"/><line y1="1.979" transform="translate(12.016 32.566)" stroke-width="2" stroke="#344154" stroke-linecap="round" stroke-linejoin="round" stroke-miterlimit="10" fill="none"/><line y1="1.979" transform="translate(19.323 44.592)" stroke-width="2" stroke="#344154" stroke-linecap="round" stroke-linejoin="round" stroke-miterlimit="10" fill="none"/><line y1="1.979" transform="translate(19.323 38.503)" stroke-width="2" stroke="#344154" stroke-linecap="round" stroke-linejoin="round" stroke-miterlimit="10" fill="none"/><line y1="1.979" transform="translate(19.323 32.566)" stroke-width="2" stroke="#344154" stroke-linecap="round" stroke-linejoin="round" stroke-miterlimit="10" fill="none"/><line y1="1.979" transform="translate(26.477 44.592)" stroke-width="2" stroke="#344154" stroke-linecap="round" stroke-linejoin="round" stroke-miterlimit="10" fill="none"/><line y1="1.979" transform="translate(26.477 38.503)" stroke-width="2" stroke="#344154" stroke-linecap="round" stroke-linejoin="round" stroke-miterlimit="10" fill="none"/><line y1="1.979" transform="translate(26.477 32.566)" stroke-width="2" stroke="#344154" stroke-linecap="round" stroke-linejoin="round" stroke-miterlimit="10" fill="none"/><line y1="1.979" transform="translate(12.016 62.706)" stroke-width="2" stroke="#344154" stroke-linecap="round" stroke-linejoin="round" stroke-miterlimit="10" fill="none"/><line y1="1.979" transform="translate(12.016 56.617)" stroke-width="2" stroke="#344154" stroke-linecap="round" stroke-linejoin="round" stroke-miterlimit="10" fill="none"/><line y1="1.979" transform="translate(12.016 50.68)" stroke-width="2" stroke="#344154" stroke-linecap="round" stroke-linejoin="round" stroke-miterlimit="10" fill="none"/><line y1="1.979" transform="translate(19.323 62.706)" stroke-width="2" stroke="#344154" stroke-linecap="round" stroke-linejoin="round" stroke-miterlimit="10" fill="none"/><line y1="1.979" transform="translate(19.323 56.617)" stroke-width="2" stroke="#344154" stroke-linecap="round" stroke-linejoin="round" stroke-miterlimit="10" fill="none"/><line y1="1.979" transform="translate(19.323 50.68)" stroke-width="2" stroke="#344154" stroke-linecap="round" stroke-linejoin="round" stroke-miterlimit="10" fill="none"/><line y1="1.979" transform="translate(26.477 62.706)" stroke-width="2" stroke="#344154" stroke-linecap="round" stroke-linejoin="round" stroke-miterlimit="10" fill="none"/><line y1="1.979" transform="translate(26.477 56.617)" stroke-width="2" stroke="#344154" stroke-linecap="round" stroke-linejoin="round" stroke-miterlimit="10" fill="none"/><line y1="1.979" transform="translate(26.477 50.68)" stroke-width="2" stroke="#344154" stroke-linecap="round" stroke-linejoin="round" stroke-miterlimit="10" fill="none"/><path d="M33.936,62.4H3.036A2.4,2.4,0,0,1,.6,59.965V19.627A1.759,1.759,0,0,1,2.427,17.8H36.067a1.759,1.759,0,0,1,1.827,1.827v31.51" transform="translate(0 8.982)" fill="none" stroke="#344154" stroke-linecap="round" stroke-linejoin="round" stroke-miterlimit="10" stroke-width="2"/><path d="M4.7,22.082V11.274A1.689,1.689,0,0,1,6.374,9.6H27.837a1.689,1.689,0,0,1,1.674,1.674V22.082" transform="translate(2.141 4.7)" fill="none" stroke="#344154" stroke-linecap="round" stroke-linejoin="round" stroke-miterlimit="10" stroke-width="2"/><path d="M8.5,11.9a6.7,6.7,0,1,1,13.4,0" transform="translate(4.125 2.402)" fill="none" stroke="#344154" stroke-linecap="round" stroke-linejoin="round" stroke-miterlimit="10" stroke-width="2"/><line y1="7.002" transform="translate(19.323 0.6)" stroke-width="2" stroke="#344154" stroke-linecap="round" stroke-linejoin="round" stroke-miterlimit="10" fill="none"/><path d="M25.423,17.232V11.6H6.7v5.632A19.9,19.9,0,0,1,15.985,15.1,22.125,22.125,0,0,1,25.423,17.232Z" transform="translate(3.185 5.744)" fill="#7589d8"/></g></g></svg>