<svg xmlns="http://www.w3.org/2000/svg" xmlns:xlink="http://www.w3.org/1999/xlink" width="177.993" height="38" viewBox="0 0 177.993 38"><defs><linearGradient id="a" y1="0.5" x2="1" y2="0.5" gradientUnits="objectBoundingBox"><stop offset="0" stop-color="#f6921e"/><stop offset="1" stop-color="#f05a28"/></linearGradient></defs><g transform="translate(-100 -51)"><path d="M58.862,256.592H49.818s.064,4.694,0,7.052S43.789,266,43.789,266V234.026c5.023,0,10.048-.045,15.073-.045C74.486,233.981,74.53,256.592,58.862,256.592Zm-7.571-5.527h7.571c7.72,0,7.675-11.33,0-11.33H49.818V249.4A1.73,1.73,0,0,0,51.291,251.064Z" transform="translate(56.211 -177.002)"/><path d="M329.544,266.141l-3.974-10.05L322.189,246l-3.335,10.184s-2.043,5.2-2.954,7.578-6.045,2.383-6.045,2.383l-11.738-31.976h6.76l7.538,23.068,7.764-23.068h3.93l7.993,23.068,7.309-23.068h6.762s-9.62,27.364-10.682,29.67S329.544,266.141,329.544,266.141Z" transform="translate(-136.44 -177.141)"/><path d="M657.747,266h-7.171l-9.319-10.69h-5.8s-.145,5.852,0,8.271S629.425,266,629.425,266V233.981c5.072,0,10.141.045,15.211.045,7.537.045,11.512,5.069,11.512,10.6,0,4.385-2.01,8.815-8.084,10.05l7.952,8.965,1.731,1.952Zm-22.293-26.36s.014,8.214,0,9.282.884.951.884.951h8.3c3.839,0,5.482-2.555,5.482-5.114s-1.69-5.118-5.482-5.118Z" transform="translate(-387.402 -177.002)"/><path d="M176.215,233.981a16.01,16.01,0,1,0,16.01,16.01A16.01,16.01,0,0,0,176.215,233.981Zm-4.869,30.956,4.936-15.15H168.75l12.334-14.74-4.8,14.74H184Z" transform="translate(-31.973 -177.002)" fill="url(#a)"/><path d="M530.563,252.985h1.578c2.938,0,2.407-5.62,2.407-5.62H517.236v-7.58h14.906c2.938,0,2.407-5.62,2.407-5.62h-23.3v31.976h20.89c2.938,0,2.407-5.62,2.407-5.62H517.236v-7.536Z" transform="translate(-297.886 -177.141)"/><g transform="translate(270.797 51)"><path d="M751.654,216.271a3.785,3.785,0,0,1-1.433-.265,3.43,3.43,0,0,1-1.13-.731,3.358,3.358,0,0,1-.746-1.1,3.671,3.671,0,0,1,0-2.761,3.306,3.306,0,0,1,.746-1.1,3.472,3.472,0,0,1,1.13-.726,4.025,4.025,0,0,1,2.872,0,3.579,3.579,0,0,1,1.145.726,3.3,3.3,0,0,1,.76,1.1,3.61,3.61,0,0,1,0,2.761,3.355,3.355,0,0,1-.76,1.1,3.534,3.534,0,0,1-1.145.731A3.822,3.822,0,0,1,751.654,216.271Zm.009-.414a3.4,3.4,0,0,0,1.236-.221,2.981,2.981,0,0,0,1-.625,2.888,2.888,0,0,0,.664-.967,3.14,3.14,0,0,0,.241-1.246,3.058,3.058,0,0,0-.236-1.2,2.936,2.936,0,0,0-.654-.967,3.074,3.074,0,0,0-1-.645,3.452,3.452,0,0,0-2.506,0,3.029,3.029,0,0,0-.986.645,2.915,2.915,0,0,0-.645.962,3.077,3.077,0,0,0-.231,1.2,3.136,3.136,0,0,0,.231,1.212,2.948,2.948,0,0,0,.645.971,2.98,2.98,0,0,0,.986.649A3.262,3.262,0,0,0,751.663,215.857Zm-1.53-5.2H752a1.2,1.2,0,0,1,.534.12,1.332,1.332,0,0,1,.419.317,1.556,1.556,0,0,1,.274.447,1.378,1.378,0,0,1-.135,1.289,1.172,1.172,0,0,1-.621.471l1.02,1.626h-.856l-.933-1.491h-.8v1.491h-.77Zm1.808,2.116a.566.566,0,0,0,.462-.2.8.8,0,0,0,.164-.524.708.708,0,0,0-.188-.524.622.622,0,0,0-.457-.188H750.9v1.433Z" transform="translate(-748.075 -209.325)"/></g></g></svg>